<?xml version="1.0" encoding="UTF-8"?>
<svg id="uuid-9f32d9c6-3a6b-400c-a075-0089ebada5ca" data-name="Layer 1" xmlns="http://www.w3.org/2000/svg" xmlns:xlink="http://www.w3.org/1999/xlink" viewBox="0 0 298.65 282.56">
  <defs>
    <style>
      .uuid-aff070da-9bc3-411d-a32a-ed7ec640995c {
        fill: #fff;
      }

      .uuid-7d84fe1a-3866-4b07-aca4-30f70d4ddf5c {
        fill: #ffbe2c;
      }

      .uuid-8f2ff11a-50bf-4f2e-bbd6-d94f5f46e3cb {
        fill: #8376ff;
      }

      .uuid-c8e2b430-705c-484a-9a2e-a3194dfb43c0 {
        fill: url(#uuid-11675506-e7d9-4572-a55b-a744d1554116);
      }
    </style>
    <linearGradient id="uuid-11675506-e7d9-4572-a55b-a744d1554116" x1="156" y1="53.16" x2="132.26" y2="217.82" gradientUnits="userSpaceOnUse">
      <stop offset=".09" stop-color="#ffbe2c"/>
      <stop offset=".18" stop-color="#ffbd2c" stop-opacity=".98"/>
      <stop offset=".3" stop-color="#ffba2d" stop-opacity=".92"/>
      <stop offset=".42" stop-color="#ffb52f" stop-opacity=".83"/>
      <stop offset=".55" stop-color="#ffaf31" stop-opacity=".69"/>
      <stop offset=".68" stop-color="#ffa635" stop-opacity=".52"/>
      <stop offset=".82" stop-color="#ff9c39" stop-opacity=".31"/>
      <stop offset=".96" stop-color="#ff903d" stop-opacity=".07"/>
      <stop offset="1" stop-color="#ff8d3f" stop-opacity="0"/>
    </linearGradient>
  </defs>
  <path class="uuid-8f2ff11a-50bf-4f2e-bbd6-d94f5f46e3cb" d="m251.95,228.99c-29.01,32.44-75.12,53.4-127.04,53.4-36.61,0-70.3-10.41-97.17-27.92l15.83-55.63c-3.85,11.36-14.62,19.53-27.27,19.53-5.99,0-11.54-1.82-16.14-4.94l14.95-52.59,21.26-74.78c-15.49-8.61-24.87-19.28-25.54-30.86-.02-.44-.02-.85-.02-1.29C10.81,24.54,67.13.7,136.89.4h2.64c32.96.42,62.17,16.36,80.65,40.87,4.16,5.49,7.75,11.42,10.75,17.69.61,1.29,1.21,2.58,1.76,3.91,2.54,5.95,4.52,12.2,5.89,18.66.12.5.22,1.01.3,1.51.22.99.4,1.98.58,2.99v.02c.02.12.04.22.06.34.87,5.41,1.33,10.97,1.33,16.64,0,10.15-1.49,19.95-4.22,29.23-.1.34-.2.67-.32,1.03-.12.42-.26.85-.4,1.29-.06.16-.12.32-.16.5-3.21,9.94-4.96,20.52-4.96,31.53,0,23.46,7.89,45.1,21.16,62.39Z"/>
  <path class="uuid-c8e2b430-705c-484a-9a2e-a3194dfb43c0" d="m239.46,86.03l-5.02.89c-5.39.97-10.13,3.69-13.66,7.52-3.51,3.85-5.83,8.79-6.35,14.24-3.41,35.36-34.13,61.69-69.57,59.65l-.56-.02c-91.1-4.62-78.89-98.58-78.89-98.58l167.27-6.86c2.54,5.95,4.52,12.2,5.89,18.66.12.5.22,1.01.3,1.51.22.99.4,1.98.58,2.99Z"/>
  <path class="uuid-aff070da-9bc3-411d-a32a-ed7ec640995c" d="m187.3,146.08c-.28.76-.57,1.52-.88,2.26l-6.18-1.04c.51-1.06.97-2.15,1.38-3.28,6.66-18.34-2.81-38.61-21.16-45.26-18.34-6.66-38.6,2.81-45.26,21.16-1.94,5.36-2.51,10.87-1.88,16.17l-24.2-4.06c-.44-6.76.49-13.73,2.95-20.51,9.55-26.3,38.6-39.88,64.9-30.34,26.3,9.54,39.88,38.6,30.33,64.9Z"/>
  <path class="uuid-aff070da-9bc3-411d-a32a-ed7ec640995c" d="m187.3,146.08c-.28.76-.57,1.52-.88,2.26l-6.18-1.04c.51-1.06.97-2.15,1.38-3.28,6.66-18.34-2.81-38.61-21.16-45.26-18.34-6.66-38.6,2.81-45.26,21.16-1.94,5.36-2.51,10.87-1.88,16.17l-24.2-4.06c-.44-6.76.49-13.73,2.95-20.51,9.55-26.3,38.6-39.88,64.9-30.34,26.3,9.54,39.88,38.6,30.33,64.9Z"/>
  <path class="uuid-7d84fe1a-3866-4b07-aca4-30f70d4ddf5c" d="m264.56,125.46c-10.81,4.3-20.25,6.68-28.26,7.83.12-.36.22-.69.32-1.03,2.74-9.28,4.22-19.08,4.22-29.23,0-5.67-.46-11.22-1.33-16.64-.02-.12-.04-.22-.06-.34l59.27,24.37s7.22-1.43-34.17,15.03Z"/>
</svg>