<?xml version="1.0" encoding="UTF-8"?>
<svg id="uuid-0837dd70-e2c6-4b46-92d3-be78ec19f6a9" data-name="Layer 1" xmlns="http://www.w3.org/2000/svg" xmlns:xlink="http://www.w3.org/1999/xlink" viewBox="0 0 757.6 750.56">
  <defs>
    <style>
      .uuid-5c9029b0-4614-4b2c-bc12-980dd4c57ae7 {
        font-family: Geologica-Regular, Geologica;
        font-size: 97.68px;
        font-variation-settings: 'wght' 400, 'CRSV' 0, 'SHRP' 0, 'slnt' 0;
      }

      .uuid-5c9029b0-4614-4b2c-bc12-980dd4c57ae7, .uuid-fa44d55e-9abf-4321-a396-6a00502abacf {
        fill: #8376ff;
      }

      .uuid-a5768e8f-8e46-4cf6-ab21-63e1ea1d0284 {
        fill: #fff;
      }

      .uuid-5cb5caac-3de1-4e2e-a15b-571e1349c5c9 {
        fill: #ffbe2c;
      }

      .uuid-8ddd38dd-2354-453a-bbf7-516bbc88661a {
        fill: url(#uuid-487bea6d-b8bd-44ae-8108-5b407e5366e8);
      }

      .uuid-266dac2d-2856-403d-8e0a-003afecca827 {
        fill: #2e1053;
        font-family: Geologica-Bold, Geologica;
        font-size: 182.91px;
        font-variation-settings: 'wght' 700, 'CRSV' 0, 'SHRP' 0, 'slnt' 0;
        font-weight: 700;
      }
    </style>
    <linearGradient id="uuid-487bea6d-b8bd-44ae-8108-5b407e5366e8" x1="406.48" y1="115.09" x2="366.93" y2="389.34" gradientUnits="userSpaceOnUse">
      <stop offset=".09" stop-color="#ffbe2c"/>
      <stop offset=".18" stop-color="#ffbd2c" stop-opacity=".98"/>
      <stop offset=".3" stop-color="#ffba2d" stop-opacity=".92"/>
      <stop offset=".42" stop-color="#ffb52f" stop-opacity=".83"/>
      <stop offset=".55" stop-color="#ffaf31" stop-opacity=".69"/>
      <stop offset=".68" stop-color="#ffa635" stop-opacity=".52"/>
      <stop offset=".82" stop-color="#ff9c39" stop-opacity=".31"/>
      <stop offset=".96" stop-color="#ff903d" stop-opacity=".07"/>
      <stop offset="1" stop-color="#ff8d3f" stop-opacity="0"/>
    </linearGradient>
  </defs>
  <text class="uuid-266dac2d-2856-403d-8e0a-003afecca827" transform="translate(14.37 626.03)"><tspan x="0" y="0">weewee</tspan></text>
  <text class="uuid-5c9029b0-4614-4b2c-bc12-980dd4c57ae7" transform="translate(197.64 722.67)"><tspan x="0" y="0">delivery</tspan></text>
  <g>
    <path class="uuid-fa44d55e-9abf-4321-a396-6a00502abacf" d="m566.29,407.96c-48.32,54.04-125.12,88.95-211.59,88.95-60.97,0-117.09-17.34-161.85-46.51l26.36-92.65c-6.41,18.93-24.34,32.53-45.42,32.53-9.98,0-19.22-3.04-26.89-8.22l24.9-87.6,35.41-124.56c-25.8-14.33-41.42-32.11-42.54-51.39-.03-.73-.03-1.42-.03-2.15,0-48.95,93.8-88.65,210-89.15h4.39c54.9.69,103.55,27.25,134.33,68.08,6.94,9.15,12.91,19.03,17.9,29.46,1.02,2.15,2.01,4.29,2.94,6.51,4.23,9.91,7.53,20.31,9.81,31.08.2.83.36,1.68.5,2.51.36,1.65.66,3.3.96,4.99v.03c.03.2.07.36.1.56,1.45,9.02,2.21,18.27,2.21,27.71,0,16.91-2.48,33.23-7.04,48.69-.17.56-.33,1.12-.53,1.72-.2.69-.43,1.42-.66,2.15-.1.26-.2.53-.26.83-5.35,16.55-8.26,34.19-8.26,52.52,0,39.07,13.15,75.11,35.24,103.91Z"/>
    <path class="uuid-8ddd38dd-2354-453a-bbf7-516bbc88661a" d="m545.48,169.85l-8.36,1.49c-8.98,1.62-16.88,6.14-22.76,12.52-5.85,6.41-9.71,14.63-10.57,23.72-5.68,58.89-56.84,102.76-115.87,99.35l-.92-.03c-151.74-7.7-131.39-164.19-131.39-164.19l278.61-11.43c4.23,9.91,7.53,20.31,9.81,31.08.2.83.36,1.68.5,2.51.36,1.65.66,3.3.96,4.99Z"/>
    <path class="uuid-a5768e8f-8e46-4cf6-ab21-63e1ea1d0284" d="m458.61,269.85c-.46,1.27-.95,2.53-1.47,3.76l-10.3-1.73c.85-1.76,1.62-3.58,2.3-5.47,11.09-30.55-4.69-64.31-35.24-75.39-30.55-11.09-64.3,4.69-75.39,35.24-3.23,8.92-4.18,18.11-3.14,26.93l-40.3-6.75c-.73-11.27.81-22.87,4.91-34.16,15.9-43.81,64.29-66.43,108.1-50.53,43.8,15.89,66.42,64.29,50.52,108.09Z"/>
    <path class="uuid-a5768e8f-8e46-4cf6-ab21-63e1ea1d0284" d="m458.61,269.85c-.46,1.27-.95,2.53-1.47,3.76l-10.3-1.73c.85-1.76,1.62-3.58,2.3-5.47,11.09-30.55-4.69-64.31-35.24-75.39-30.55-11.09-64.3,4.69-75.39,35.24-3.23,8.92-4.18,18.11-3.14,26.93l-40.3-6.75c-.73-11.27.81-22.87,4.91-34.16,15.9-43.81,64.29-66.43,108.1-50.53,43.8,15.89,66.42,64.29,50.52,108.09Z"/>
    <path class="uuid-5cb5caac-3de1-4e2e-a15b-571e1349c5c9" d="m587.29,235.51c-18,7.17-33.72,11.13-47.07,13.05.2-.59.36-1.16.53-1.72,4.56-15.46,7.04-31.77,7.04-48.69,0-9.45-.76-18.69-2.21-27.71-.03-.2-.07-.36-.1-.56l98.73,40.59s12.02-2.38-56.91,25.04Z"/>
  </g>
</svg>